<?xml version="1.0" encoding="utf-8"?>
<!-- Generator: Adobe Illustrator 21.0.0, SVG Export Plug-In . SVG Version: 6.00 Build 0)  -->
<svg version="1.1" id="Layer_1" xmlns="http://www.w3.org/2000/svg" xmlns:xlink="http://www.w3.org/1999/xlink" x="0px" y="0px"
	 viewBox="0 0 50 50" style="enable-background:new 0 0 50 50;" xml:space="preserve">
<g>
	<path d="M10.1,20.8l2.6,8.8l2.6-8.8h1.6l-3.1,10h-2.2l-3.1-10H10.1z"/>
	<path d="M18.3,30.9v-10h1.6v10H18.3z"/>
	<path d="M21.8,20.8h6.8v1.4h-5.3v2.9h5.1v1.4h-5.1v3h5.4v1.4h-7V20.8z"/>
	<path d="M34.5,20.8h2.1l1.6,8.7l1.8-8.7h1.5l-2.1,10H37l-1.5-8.3l-1.5,8.3h-2.4l-2.1-10h1.5l1.8,8.7L34.5,20.8z"/>
</g>
<rect x="8.5" y="16" width="33" height="1.5"/>
</svg>
